<?xml version="1.0" encoding="UTF-8"?>
<svg xmlns="http://www.w3.org/2000/svg" xmlns:xlink="http://www.w3.org/1999/xlink" viewBox="0 0 480 480" width="480px" height="480px">
<g id="surface142461329">
<path style=" stroke:none;fill-rule:nonzero;fill:rgb(23.137255%,50.980395%,96.470588%);fill-opacity:1;" d="M 440 240 C 440 350.441406 350.441406 440 240 440 C 129.558594 440 40 350.441406 40 240 C 40 129.558594 129.558594 40 240 40 C 350.441406 40 440 129.558594 440 240 Z M 440 240 "/>
<path style=" stroke:none;fill-rule:nonzero;fill:rgb(93.333334%,93.333334%,93.333334%);fill-opacity:1;" d="M 400 240 C 400 328.378906 328.378906 400 240 400 C 151.621094 400 80 328.378906 80 240 C 80 151.621094 151.628906 80 240 80 C 328.371094 80 400 151.628906 400 240 Z M 400 240 "/>
<path style=" stroke:none;fill-rule:nonzero;fill:rgb(0%,0%,0%);fill-opacity:1;" d="M 230 110 L 250 110 L 250 240 L 230 240 Z M 230 110 "/>
<path style=" stroke:none;fill-rule:nonzero;fill:rgb(0%,0%,0%);fill-opacity:1;" d="M 231.742188 248.261719 L 248.265625 231.734375 L 313.265625 296.730469 L 296.742188 313.257812 Z M 231.742188 248.261719 "/>
<path style=" stroke:none;fill-rule:nonzero;fill:rgb(0%,0%,0%);fill-opacity:1;" d="M 270 240 C 270 256.570312 256.558594 270 240 270 C 223.429688 270 210 256.570312 210 240 C 210 223.429688 223.429688 210 240 210 C 256.558594 210 270 223.429688 270 240 "/>
<path style=" stroke:none;fill-rule:nonzero;fill:rgb(23.137255%,50.980395%,96.470588%);fill-opacity:1;" d="M 250 240 C 250 245.511719 245.519531 250 240 250 C 234.480469 250 230 245.511719 230 240 C 230 234.46875 234.480469 230 240 230 C 245.519531 230 250 234.46875 250 240 "/>
</g>
</svg>
