<svg xmlns="http://www.w3.org/2000/svg"  viewBox="0 0 48 48" width="480px" height="480px"><path fill="none" stroke="#3f51b5" stroke-width="2" d="M24,13V7.949C24,6.32,25.32,5,26.949,5h0.102C28.68,5,30,6.32,30,7.949v0"/><line x1="44" x2="42" y1="28.989" y2="28.989" fill="none" stroke="#3f51b5" stroke-width="2"/><path fill="#7986cb" d="M35.678,21.989h2.188c2.279,0,4.134,1.854,4.134,4.134v5.732c0,2.279-1.854,4.134-4.134,4.134h-2.188	V21.989z"/><line x1="4" x2="6" y1="28.989" y2="28.989" fill="none" stroke="#3f51b5" stroke-width="2"/><path fill="#7986cb" d="M12.322,21.989h-2.188C7.854,21.989,6,23.844,6,26.123v5.732c0,2.279,1.854,4.134,4.134,4.134h2.188	V21.989z"/><path fill="#7986cb" d="M25.367,11h-2.734C20.078,11,18,13.078,18,15.633C18,16.387,18.613,17,19.367,17h9.266	C29.387,17,30,16.387,30,15.633C30,13.078,27.922,11,25.367,11z"/><path fill="#c5cae9" d="M32.981,14H15.019C11.7,14,9,16.689,9,19.994v17.011C9,40.311,11.7,43,15.019,43h17.962	C36.3,43,39,40.311,39,37.006V19.994C39,16.689,36.3,14,32.981,14z"/><circle cx="30" cy="9" r="2" fill="#4fc3f7"/><polyline fill="none" stroke="#3949ab" stroke-width="2" points="15,37.614 17.995,35.614 20.993,37.614 23.992,35.614 26.991,37.614 29.996,35.614 33,37.614"/><circle cx="31" cy="25" r="3" fill="#4fc3f7" stroke="#3949ab" stroke-linecap="round" stroke-linejoin="round" stroke-width="2"/><line x1="20" x2="14" y1="22" y2="28" fill="none" stroke="#3949ab" stroke-width="2"/><line x1="14" x2="20" y1="22" y2="28" fill="none" stroke="#3949ab" stroke-width="2"/></svg>